# xmcd
#
# Track frame offsets: 
#        150
#        17533
#        39906
#        64549
#        83094
#        100075
#        124135
#        157080
#        169213
#        191113
#        223860
#        249490
#        269968
#        290879
#        312712
#        336547
#
# Disc length: 4765 seconds
#
# Revision: 6
# Processed by: cddbd v1.5.2PL0 Copyright (c) Steve Scherf et al.
# Submitted via: ExactAudioCopyFreeDBPlugin 1.0
#
DISCID=fc129b10
DTITLE=Various Artist - 2002 - 1000% Blues Vol.1
DYEAR=2002
DGENRE=Blues
TTITLE0=Oscar Benton - Bensonhurst Blues
TTITLE1=Carlos Santana - Europa
TTITLE2=Tony Joe White - The Guitr Don't Lie
TTITLE3=Gary Moore - Still Got The Blues
TTITLE4=Dire Straits - Fade To Black
TTITLE5=Chris Rea - And You My Love
TTITLE6=Eric Clapton - River Of Tears
TTITLE7=Joe Cocker - You Are So Beautiful
TTITLE8=Stevie Ray Vaughan - The Things (That) I Used To Do
TTITLE9=Albert King - I'll Play The Blues For You
TTITLE10=Little Blue - Gold Rain
TTITLE11=Robin Trower- Shining Through
TTITLE12=Robert Cray Band - Never Mattered Much
TTITLE13=Lucky Peterson - Who Been Talking
TTITLE14=Smoking Joe Kubek - Walk On
TTITLE15=Jeff Healey Band -It Could All Get Blown Away
EXTD=
EXTT0=
EXTT1=
EXTT2=
EXTT3=
EXTT4=
EXTT5=
EXTT6=
EXTT7=
EXTT8=
EXTT9=
EXTT10=
EXTT11=
EXTT12=
EXTT13=
EXTT14=
EXTT15=
PLAYORDER=
